# File created by Blade
# Date/Time:  Tue Apr 07 21:25:57 2015
# Frame Rate: 120.000 fps
#------------------------------------------------------
:FULLY-SPECIFIED
:DEGREES
691
root -13.068301 32.815340 6.956027 10.510292 -73.742942 7.337008
Spine -18.345239 2.432974 -6.232532
Head 12.349827 1.403927 -1.053498
LeftShoulder -26.899592 45.769536 13.765984
LeftArm 60.959572 -55.269713 -84.196509
LeftForeArm -0.546152 -0.000000 5.528598
LeftHand 13.391386 -0.000000 20.947393
LeftHandThumb1 -26.253704 0.000000 33.147579
RightShoulder -4.759857 6.558848 -30.193081
RightArm 21.665656 11.684905 52.347902
RightForeArm -11.714725 0.000000 16.318325
RightHand 9.458524 -0.000000 -8.220796
RightHandThumb1 -24.326973 -0.000000 -32.862282
LeftUpLeg -29.446627 -4.081288 -4.324449
LeftLeg 5.040242 -0.000000 -0.000000
LeftFoot 3.241992 13.749587 -20.655009
LeftToeBase -7.985038 -0.000000 0.000000
RightUpLeg -0.569056 4.222511 5.273660
RightLeg 14.101616 -0.000000 -0.000000
RightFoot -8.328483 -12.638149 8.631670
RightToeBase -11.387038 -0.000000 0.000000
692
root -13.109727 32.826960 6.949052 10.906339 -73.932109 6.955158
Spine -18.326421 2.575924 -6.129288
Head 11.792646 2.542664 -1.089262
LeftShoulder -27.348756 45.904305 13.234451
LeftArm 61.091945 -55.187417 -84.592967
LeftForeArm -0.401552 0.000000 5.629575
LeftHand 13.232602 -0.000000 21.071009
LeftHandThumb1 -26.253704 0.000000 33.147579
RightShoulder -4.682886 6.333757 -30.139769
RightArm 21.632090 11.646762 52.681993
RightForeArm -11.420333 0.000000 16.357877
RightHand 9.382556 0.000000 -7.556280
RightHandThumb1 -24.326973 -0.000000 -32.862282
LeftUpLeg -29.392812 -3.901679 -4.194653
LeftLeg 4.997323 -0.000000 -0.000000
LeftFoot 3.251793 13.670628 -20.651080
LeftToeBase -8.218138 -0.000000 0.000000
RightUpLeg -0.798980 4.562905 5.190672
RightLeg 14.557405 -0.000000 -0.000000
RightFoot -9.017815 -12.011388 9.113072
RightToeBase -10.628993 -0.000000 0.000000
693
root -13.141200 32.837451 6.938856 11.401425 -74.094982 6.500439
Spine -18.329972 2.697383 -5.991509
Head 11.267809 3.731009 -1.164620
LeftShoulder -27.763234 46.025992 12.711851
LeftArm 61.092000 -55.118942 -84.852105
LeftForeArm -0.326081 -0.000000 5.706948
LeftHand 13.172888 0.000000 20.758326
LeftHandThumb1 -26.253704 0.000000 33.147579
RightShoulder -4.610805 6.148867 -30.071488
RightArm 21.616391 11.529362 52.961716
RightForeArm -11.343074 -0.000000 16.361062
RightHand 9.402698 -0.000000 -7.467356
RightHandThumb1 -24.326973 -0.000000 -32.862282
LeftUpLeg -29.400498 -3.764524 -4.030417
LeftLeg 5.001207 -0.000000 -0.000000
LeftFoot 3.281576 13.633109 -20.802874
LeftToeBase -8.689911 -0.000000 0.000000
RightUpLeg -1.084204 4.984833 5.121331
RightLeg 15.025499 -0.000000 -0.000000
RightFoot -9.785645 -11.320360 9.707117
RightToeBase -9.451259 -0.000000 0.000000
694
root -13.169650 32.847551 6.926603 11.912065 -74.200423 6.001395
Spine -18.312460 2.841047 -5.829837
Head 10.782667 4.905566 -1.294767
LeftShoulder -28.105903 46.087399 12.242204
LeftArm 60.974221 -54.928402 -84.894094
LeftForeArm -0.265007 -0.000000 5.601048
LeftHand 13.298257 -0.000000 20.721877
LeftHandThumb1 -26.253704 0.000000 33.147579
RightShoulder -4.600364 5.854779 -30.014855
RightArm 21.741447 11.273938 53.176791
RightForeArm -11.257986 -0.000000 16.235122
RightHand 9.432844 -0.000000 -7.532505
RightHandThumb1 -24.326973 -0.000000 -32.862282
LeftUpLeg -29.404070 -3.622861 -3.873756
LeftLeg 5.023424 -0.000000 -0.000000
LeftFoot 3.318194 13.530952 -20.528342
LeftToeBase -8.643366 -0.000000 0.000000
RightUpLeg -1.325664 5.410712 5.074049
RightLeg 15.386511 -0.000000 -0.000000
RightFoot -10.568465 -10.737788 10.319711
RightToeBase -8.814442 -0.000000 0.000000
695
root -13.193929 32.857428 6.912578 12.423614 -74.229153 5.482273
Spine -18.277303 2.929227 -5.652755
Head 10.325907 6.146871 -1.424012
LeftShoulder -28.429122 46.163615 11.802730
LeftArm 60.890275 -54.740723 -85.002117
LeftForeArm -0.159572 0.000000 5.525561
LeftHand 13.215392 -0.000000 20.437472
LeftHandThumb1 -26.253704 0.000000 33.147579
RightShoulder -4.560605 5.737429 -29.965317
RightArm 21.729329 10.855696 53.327030
RightForeArm -11.091142 -0.000000 16.006499
RightHand 9.494056 -0.000000 -7.508127
RightHandThumb1 -24.326973 -0.000000 -32.862282
LeftUpLeg -29.420942 -3.544124 -3.700242
LeftLeg 5.101444 -0.000000 -0.000000
LeftFoot 3.401858 13.446344 -20.662150
LeftToeBase -9.132308 -0.000000 0.000000
RightUpLeg -1.547978 5.815260 5.047019
RightLeg 15.595831 -0.000000 -0.000000
RightFoot -11.198015 -10.548756 10.786558
RightToeBase -9.102434 -0.000000 0.000000
696
root -13.216417 32.870500 6.898372 12.995544 -74.202192 4.892948
Spine -18.246986 3.015815 -5.433285
Head 9.925689 7.429845 -1.566675
LeftShoulder -28.733598 46.258858 11.373945
LeftArm 60.669315 -54.438853 -84.927388
LeftForeArm -0.100174 -0.000000 5.407985
LeftHand 13.368443 -0.000000 20.208064
LeftHandThumb1 -26.253704 0.000000 33.147579
RightShoulder -4.523124 5.546996 -29.933385
RightArm 21.775725 10.494887 53.496075
RightForeArm -11.008039 -0.000000 15.711188
RightHand 9.748017 -0.000000 -7.555950
RightHandThumb1 -24.326973 -0.000000 -32.862282
LeftUpLeg -29.456071 -3.505367 -3.503032
LeftLeg 5.196750 -0.000000 -0.000000
LeftFoot 3.528402 13.356315 -20.535705
LeftToeBase -9.417103 -0.000000 0.000000
RightUpLeg -1.756256 6.099391 5.037081
RightLeg 15.710639 -0.000000 -0.000000
RightFoot -11.941863 -10.446945 11.540773
RightToeBase -9.207833 -0.000000 0.000000
